<svg xmlns="http://www.w3.org/2000/svg" xmlns:xlink="http://www.w3.org/1999/xlink" version="1.1" x="0px" y="0px" viewBox="0 0 100 125" style="fill:#000;enable-background:new 0 0 100 100;" xml:space="preserve"><g><path d="M50,5c-8.3,0-15,6.7-15,15c0,8.3,6.7,15,15,15s15-6.7,15-15C65,11.7,58.3,5,50,5z M55.5,26.3C54.1,28,52.1,29,50,29   s-4.1-1-5.5-2.7c-0.7-0.8-0.6-2.1,0.3-2.8c0.9-0.7,2.1-0.6,2.8,0.3c1.4,1.7,3.6,1.7,4.9,0c0.7-0.8,2-1,2.8-0.3   C56.1,24.2,56.2,25.4,55.5,26.3z"/><path d="M24.9,65h50.1c2.2,0,3.9-1.8,3.9-3.9C79,48.9,69.1,39,56.9,39H43.1C30.9,39,21,48.9,21,61.1C21,63.2,22.8,65,24.9,65z"/><path d="M27.3,78.7l-5.5-0.8c-0.2,0-0.4-0.2-0.5-0.4l-2.5-5.3c-0.3-0.7-1-1.2-1.8-1.2s-1.5,0.4-1.8,1.2l-2.5,5.3   c-0.1,0.2-0.3,0.4-0.5,0.4l-5.5,0.8C6,78.8,5.3,79.3,5.1,80S5,81.5,5.6,82l4,4.2c0.2,0.2,0.2,0.4,0.2,0.6l-1,5.9   c-0.1,0.8,0.2,1.5,0.8,2c0.6,0.4,1.4,0.5,2.1,0.1l4.9-2.7c0.2-0.1,0.5-0.1,0.7,0l4.9,2.7c0.3,0.2,0.6,0.2,1,0.2   c0.4,0,0.8-0.1,1.2-0.4c0.6-0.4,0.9-1.2,0.8-2l-1-5.9c0-0.2,0-0.4,0.2-0.6l4-4.1c0.5-0.5,0.7-1.3,0.5-2S28,78.8,27.3,78.7z"/><path d="M60.3,78.7l-5.5-0.8c-0.2,0-0.4-0.2-0.5-0.4l-2.5-5.3c-0.3-0.7-1-1.2-1.8-1.2s-1.5,0.4-1.8,1.2l-2.5,5.3   c-0.1,0.2-0.3,0.4-0.5,0.4l-5.5,0.8c-0.7,0.1-1.4,0.6-1.6,1.3s-0.1,1.5,0.5,2l4,4.2c0.2,0.2,0.2,0.4,0.2,0.6l-1,5.9   c-0.1,0.8,0.2,1.5,0.8,2c0.6,0.4,1.4,0.5,2.1,0.1l4.9-2.7c0.2-0.1,0.5-0.1,0.7,0l4.9,2.7c0.3,0.2,0.6,0.2,1,0.2   c0.4,0,0.8-0.1,1.2-0.4c0.6-0.4,0.9-1.2,0.8-2l-1-5.9c0-0.2,0-0.4,0.2-0.6l4-4.1c0.5-0.5,0.7-1.3,0.5-2   C61.7,79.3,61,78.8,60.3,78.7z"/><path d="M94.4,82c0.5-0.5,0.7-1.3,0.5-2c-0.2-0.7-0.9-1.2-1.6-1.3l-5.5-0.8c-0.2,0-0.4-0.2-0.5-0.4l-2.5-5.3   c-0.3-0.7-1-1.2-1.8-1.2s-1.5,0.4-1.8,1.2l-2.5,5.3c-0.1,0.2-0.3,0.4-0.5,0.4l-5.5,0.8c-0.7,0.1-1.4,0.6-1.6,1.3   c-0.2,0.7-0.1,1.5,0.5,2l4,4.1c0.2,0.2,0.2,0.4,0.2,0.6l-1,5.9c-0.1,0.8,0.2,1.5,0.8,2c0.6,0.4,1.4,0.5,2.1,0.1l4.9-2.7   c0.2-0.1,0.5-0.1,0.7,0l4.9,2.7c0.3,0.2,0.6,0.2,1,0.2c0.4,0,0.8-0.1,1.2-0.4c0.6-0.4,0.9-1.2,0.8-2l-1-5.9c0-0.2,0-0.4,0.2-0.6   L94.4,82z"/></g></svg>