<svg xmlns="http://www.w3.org/2000/svg" style="fill:#000;" data-name="Layer 1" viewBox="0 0 100 125" x="0px" y="0px"><g data-name="Group"><path data-name="Compound Path" d="M19.5,10.4a1,1,0,0,0-1,1v4.9H16.8a9,9,0,0,0-9,9V65.7a9,9,0,0,0,9,9H47.3A23.2,23.2,0,1,0,82.5,47.5V25.4a9,9,0,0,0-9-9H71.8V11.4a1,1,0,0,0-2,0v4.9H59V11.4a1,1,0,0,0-2,0v4.9H46.2V11.4a1,1,0,0,0-2,0v4.9H33.3V11.4a1,1,0,0,0-2,0v4.9H20.5V11.4A1,1,0,0,0,19.5,10.4ZM90.2,66.3A21.2,21.2,0,1,1,68.9,45.1,21.3,21.3,0,0,1,90.2,66.3Zm-58.8-48v3.9a1,1,0,0,0,2,0V18.4H44.2v3.9a1,1,0,0,0,2,0V18.4H57v3.9a1,1,0,0,0,2,0V18.4H69.8v3.9a1,1,0,1,0,2,0V18.4h1.7a7,7,0,0,1,7,7V46.2a23.2,23.2,0,0,0-25.6,1.6,1,1,0,0,0-1-.9H50.4a1,1,0,0,0,0,2h3.1a23.2,23.2,0,0,0-6.9,23.7H16.8a7,7,0,0,1-7-7V25.4a7,7,0,0,1,7-7h1.7v3.9a1,1,0,0,0,2,0V18.4Z"/><path data-name="Path" d="M36.4,37.3h3.5a1,1,0,0,0,0-2H36.4a1,1,0,0,0,0,2Z"/><path data-name="Path" d="M22.4,37.3h3.5a1,1,0,1,0,0-2H22.4a1,1,0,0,0,0,2Z"/><path data-name="Path" d="M50.4,37.3h3.5a1,1,0,0,0,0-2H50.4a1,1,0,0,0,0,2Z"/><path data-name="Path" d="M64.4,37.3h3.5a1,1,0,0,0,0-2H64.4a1,1,0,1,0,0,2Z"/><path data-name="Path" d="M36.4,49h3.5a1,1,0,0,0,0-2H36.4a1,1,0,0,0,0,2Z"/><path data-name="Path" d="M22.4,49h3.5a1,1,0,1,0,0-2H22.4a1,1,0,0,0,0,2Z"/><path data-name="Path" d="M36.4,60.6h3.5a1,1,0,0,0,0-2H36.4a1,1,0,0,0,0,2Z"/><path data-name="Path" d="M22.4,60.6h3.5a1,1,0,1,0,0-2H22.4a1,1,0,0,0,0,2Z"/><path data-name="Path" d="M68.8,55.8a1,1,0,0,0-2,0V68.1a1,1,0,0,0,1,1h9.3a1,1,0,0,0,0-2H68.8Z"/></g></svg>