<svg xmlns="http://www.w3.org/2000/svg" xmlns:xlink="http://www.w3.org/1999/xlink" version="1.1" x="0px" y="0px" viewBox="0 0 100 125" style="fill:#000;" enable-background="new 0 0 100 100" xml:space="preserve"><g><path d="M23.292,34.648h2.873c0.556,0,1.134,0.354,1.283,0.788c0.149,0.433,0.355,1.822-0.038,2.215l-2.031,2.031   c-0.393,0.394-0.423,1.064-0.067,1.492l2.389,2.39c0.2,0.167,0.453,0.249,0.706,0.249c0.288,0,0.576-0.106,0.786-0.316l2.031-2.031   c0.278-0.277,0.686-0.438,1.046-0.438c0.149,0,0.29,0.028,0.41,0.086c0.407,0.199,1.548,1.041,1.548,1.597v2.873   c0,0.556,0.451,1.073,1.001,1.148c0,0,0.774,0.106,1.695,0.106c0.921,0,1.695-0.106,1.695-0.106   c0.551-0.076,1.001-0.593,1.001-1.148v-2.873c0-0.556,0.354-1.133,0.788-1.283c0.248-0.085,0.807-0.189,1.315-0.189   c0.381,0,0.733,0.058,0.901,0.227l2.031,2.031c0.209,0.209,0.498,0.316,0.786,0.316c0.253,0,0.506-0.082,0.706-0.249l1.369-1.368   c0.263-0.455,0.626-0.838,1.07-1.112c0.025-0.016,0.045-0.038,0.071-0.053c-0.005-0.021-0.003-0.042-0.009-0.063   c-0.084-0.357-0.092-0.726-0.05-1.091c-0.041-0.066-0.073-0.138-0.129-0.194l-2.031-2.031c-0.393-0.393-0.552-1.048-0.352-1.456   c0.199-0.407,1.041-1.548,1.597-1.548h2.874c0.557,0,1.073-0.451,1.148-1.001c0,0,0.105-0.774,0.105-1.695   c0-0.103-0.002-0.204-0.004-0.302c-0.41-0.658-0.609-1.407-0.592-2.158c-0.193-0.141-0.419-0.236-0.66-0.236h-2.873   c-0.556,0-1.134-0.354-1.283-0.788c-0.149-0.434-0.355-1.824,0.038-2.217l2.031-2.03c0.122-0.122,0.196-0.273,0.247-0.433   c-0.47-0.511-0.805-1.138-0.954-1.833l-1.616-1.616c-0.2-0.167-0.453-0.249-0.706-0.249c-0.288,0-0.577,0.106-0.786,0.316   l-2.031,2.03c-0.278,0.278-0.686,0.439-1.046,0.439c-0.149,0-0.29-0.028-0.41-0.086c-0.407-0.199-1.549-1.041-1.549-1.597v-2.873   c0-0.556-0.45-1.073-1.001-1.149c0,0-0.774-0.106-1.695-0.106c-0.92,0-1.695,0.106-1.695,0.106   c-0.551,0.076-1.001,0.593-1.001,1.149v2.873c0,0.556-0.354,1.133-0.788,1.283c-0.248,0.085-0.807,0.189-1.314,0.189   c-0.381,0-0.733-0.058-0.902-0.227l-2.031-2.03c-0.209-0.209-0.498-0.316-0.786-0.316c-0.253,0-0.506,0.082-0.706,0.248   l-2.389,2.39c-0.357,0.427-0.327,1.098,0.067,1.492l2.03,2.03c0.394,0.394,0.552,1.049,0.353,1.456   c-0.2,0.407-1.041,1.549-1.598,1.549h-2.872c-0.556,0-1.073,0.45-1.149,1.001c0,0-0.106,0.774-0.106,1.695   c0,0.921,0.106,1.695,0.106,1.695C22.218,34.198,22.736,34.648,23.292,34.648z M36.924,26.502c3.009,0,5.45,2.44,5.45,5.45   c0,3.009-2.441,5.45-5.45,5.45c-3.01,0-5.45-2.44-5.45-5.45C31.474,28.942,33.915,26.502,36.924,26.502z"/><path d="M62.477,45.876h1.442c0.28,0,0.54-0.227,0.578-0.503c0,0,0.053-0.389,0.053-0.852c0-0.462-0.053-0.851-0.053-0.851   c-0.038-0.277-0.298-0.503-0.578-0.503h-1.442c-0.279,0-0.569-0.178-0.646-0.396c-0.074-0.218-0.179-0.917,0.021-1.114l1.021-1.02   c0.196-0.198,0.212-0.535,0.032-0.75l-1.199-1.201c-0.102-0.083-0.229-0.125-0.354-0.125c-0.146,0-0.291,0.053-0.396,0.159   l-1.02,1.021c-0.141,0.139-0.346,0.22-0.525,0.22c-0.075,0-0.146-0.014-0.206-0.043c-0.205-0.1-0.778-0.523-0.778-0.802v-1.444   c0-0.279-0.227-0.539-0.503-0.577c0,0-0.39-0.054-0.853-0.054s-0.853,0.054-0.853,0.054c-0.276,0.038-0.503,0.298-0.503,0.577   v1.444c0,0.279-0.179,0.569-0.396,0.645c-0.125,0.043-0.405,0.095-0.66,0.095c-0.191,0-0.369-0.03-0.453-0.114l-1.021-1.021   c-0.104-0.105-0.248-0.158-0.395-0.158c-0.127,0-0.255,0.041-0.354,0.124l-1.201,1.201c-0.178,0.214-0.164,0.551,0.033,0.75   l1.021,1.02c0.196,0.198,0.276,0.527,0.177,0.731s-0.521,0.778-0.802,0.778H50.22c-0.279,0-0.539,0.226-0.578,0.503   c0,0-0.053,0.39-0.053,0.852c0,0.463,0.053,0.852,0.053,0.852c0.039,0.277,0.299,0.503,0.578,0.503h1.444   c0.279,0,0.568,0.178,0.645,0.396c0.074,0.217,0.178,0.916-0.02,1.113l-1.021,1.021c-0.195,0.198-0.211,0.535-0.033,0.75   l1.201,1.201c0.101,0.084,0.229,0.125,0.354,0.125c0.146,0,0.29-0.053,0.396-0.159l1.021-1.021c0.14-0.139,0.344-0.22,0.524-0.22   c0.076,0,0.146,0.014,0.207,0.044c0.205,0.1,0.777,0.523,0.777,0.802v1.443c0,0.278,0.227,0.539,0.503,0.577   c0,0,0.39,0.054,0.853,0.054s0.853-0.054,0.853-0.054c0.276-0.038,0.503-0.299,0.503-0.577v-1.443c0-0.279,0.178-0.57,0.396-0.645   c0.125-0.043,0.406-0.095,0.66-0.095c0.191,0,0.369,0.029,0.453,0.114l1.021,1.021c0.104,0.105,0.251,0.159,0.396,0.159   c0.127,0,0.254-0.041,0.354-0.125l1.2-1.2c0.179-0.215,0.164-0.552-0.033-0.75l-1.021-1.02c-0.197-0.198-0.276-0.526-0.178-0.731   C61.773,46.45,62.195,45.876,62.477,45.876z M57.07,47.26c-1.514,0-2.738-1.226-2.738-2.739c0-1.512,1.225-2.738,2.738-2.738   c1.512,0,2.736,1.226,2.736,2.738C59.809,46.033,58.582,47.26,57.07,47.26z"/><path d="M51.623,22.55h3.475c0.672,0,1.373,0.429,1.553,0.954c0.182,0.523,0.431,2.205-0.047,2.68l-2.455,2.458   c-0.477,0.476-0.512,1.287-0.082,1.804l2.891,2.892c0.242,0.201,0.548,0.301,0.854,0.301c0.35,0,0.697-0.128,0.951-0.382   l2.457-2.457c0.336-0.336,0.83-0.53,1.266-0.53c0.181,0,0.352,0.033,0.496,0.104c0.492,0.241,1.873,1.26,1.873,1.932v3.476   c0,0.672,0.545,1.298,1.213,1.389c0,0,0.937,0.129,2.05,0.129c1.114,0,2.052-0.129,2.052-0.129   c0.667-0.091,1.212-0.717,1.212-1.389v-3.476c0-0.672,0.429-1.372,0.952-1.552c0.3-0.103,0.979-0.229,1.592-0.229   c0.461,0,0.887,0.071,1.09,0.274l2.457,2.457c0.254,0.253,0.604,0.382,0.951,0.382c0.307,0,0.612-0.1,0.854-0.301l2.892-2.891   c0.431-0.517,0.396-1.329-0.081-1.805l-2.457-2.458c-0.477-0.475-0.668-1.267-0.426-1.761c0.24-0.492,1.26-1.874,1.932-1.874h3.477   c0.674,0,1.299-0.545,1.391-1.211c0,0,0.128-0.937,0.128-2.051c0-1.114-0.128-2.051-0.128-2.051   c-0.092-0.667-0.717-1.212-1.391-1.212h-3.476c-0.673,0-1.372-0.429-1.554-0.953c-0.18-0.525-0.43-2.207,0.047-2.682l2.457-2.457   c0.477-0.477,0.512-1.288,0.081-1.805l-2.892-2.892c-0.24-0.201-0.547-0.301-0.854-0.301c-0.349,0-0.697,0.129-0.951,0.383   l-2.457,2.456c-0.336,0.337-0.83,0.531-1.265,0.531c-0.181,0-0.353-0.034-0.496-0.104C72.761,7.958,71.38,6.94,71.38,6.267V2.794   c0-0.672-0.545-1.298-1.212-1.39c0,0-0.938-0.129-2.052-0.129c-1.113,0-2.05,0.129-2.05,0.129c-0.668,0.092-1.213,0.718-1.213,1.39   V6.27c0,0.673-0.429,1.371-0.953,1.553c-0.299,0.104-0.978,0.229-1.59,0.229c-0.461,0-0.888-0.07-1.092-0.275l-2.457-2.457   c-0.254-0.253-0.604-0.382-0.951-0.382c-0.307,0-0.611,0.099-0.854,0.3l-2.89,2.891c-0.433,0.517-0.396,1.329,0.08,1.805   l2.457,2.457c0.477,0.476,0.668,1.269,0.428,1.761c-0.243,0.492-1.262,1.874-1.934,1.874h-3.476c-0.674,0-1.298,0.545-1.391,1.211   c0,0-0.129,0.937-0.129,2.051c0,1.114,0.129,2.05,0.129,2.05C50.324,22.005,50.949,22.55,51.623,22.55z M68.115,12.694   c3.641,0,6.595,2.952,6.595,6.593s-2.954,6.593-6.595,6.593s-6.594-2.952-6.594-6.593S64.477,12.694,68.115,12.694z"/><path d="M87.123,51.049l-7.632-9.582c-0.052-0.063-0.11-0.118-0.169-0.173c-0.021-0.02-0.037-0.044-0.061-0.063l-5.429-4.625   c-0.26,1.158-1.042,2.155-2.091,2.696l3.787,3.227l-4.168,3.55l-20.92,17.825L29.606,46.153h-0.001l-5.568-4.744l-0.208-0.177   c-0.331-0.282-0.754-0.419-1.188-0.399c-0.027,0.001-0.054-0.003-0.082,0c-0.008,0.001-0.016,0.004-0.023,0.005   c-0.022,0.002-0.042,0.009-0.064,0.013c-0.059,0.009-0.117,0.02-0.173,0.035c-0.052,0.013-0.102,0.029-0.151,0.047   c-0.057,0.021-0.11,0.043-0.164,0.069c-0.048,0.022-0.093,0.048-0.139,0.075c-0.05,0.03-0.097,0.063-0.143,0.097   c-0.043,0.033-0.084,0.066-0.125,0.103c-0.001,0.001-0.002,0.002-0.004,0.003c-0.041,0.038-0.079,0.078-0.116,0.12   c-0.021,0.024-0.047,0.043-0.067,0.068l-7.632,9.583c-0.572,0.719-0.472,1.764,0.228,2.359l7.033,5.992v14.004   c0,0.498,0.219,0.974,0.599,1.297l27.718,23.615c0.026,0.021,0.056,0.039,0.083,0.06c0.039,0.028,0.078,0.058,0.118,0.083   c0.051,0.032,0.104,0.061,0.158,0.086c0.041,0.02,0.082,0.041,0.124,0.059c0.062,0.023,0.125,0.041,0.189,0.059   c0.038,0.01,0.076,0.021,0.114,0.029c0.105,0.021,0.212,0.033,0.319,0.033s0.213-0.014,0.319-0.033   c0.039-0.006,0.075-0.021,0.112-0.029c0.065-0.018,0.129-0.034,0.19-0.059c0.043-0.018,0.082-0.037,0.123-0.058   c0.054-0.026,0.106-0.055,0.158-0.087c0.04-0.025,0.078-0.055,0.116-0.083c0.026-0.021,0.058-0.037,0.084-0.06l27.718-23.615   c0.381-0.323,0.6-0.799,0.6-1.297V59.4l7.033-5.992C87.596,52.813,87.695,51.77,87.123,51.049z M17.452,51.883l5.507-6.914   L48.08,66.372l-5.508,6.915L17.452,51.883z M48.735,93.328l-24.308-20.71V62.305l17.275,14.719c0.31,0.265,0.702,0.406,1.105,0.406   c0.054,0,0.109-0.002,0.164-0.007c0.459-0.045,0.882-0.274,1.169-0.635l4.596-5.771L48.735,93.328z M76.453,72.618L52.145,93.329   l0.002-22.31l4.595,5.77c0.286,0.359,0.709,0.59,1.169,0.635c0.055,0.006,0.109,0.008,0.163,0.008c0.403,0,0.796-0.144,1.104-0.406   l17.275-14.719V72.618z M58.309,73.287l-5.508-6.915l7.104-6.052l18.02-15.352l5.508,6.915L58.309,73.287z"/></g></svg>