<svg xmlns="http://www.w3.org/2000/svg" xmlns:xlink="http://www.w3.org/1999/xlink" xml:space="preserve" version="1.1" style="fill:#000; shape-rendering:geometricPrecision;text-rendering:geometricPrecision;image-rendering:optimizeQuality;" viewBox="0 0 1.411 1.355" x="0px" y="0px" fill-rule="evenodd" clip-rule="evenodd"><defs><style type="text/css">
   
    .fil0 {fill:#000}
   
  </style></defs><g><path class="fil0" d="M0.205 0.137l0 0.682 1.001 0 0 -0.682 -1.001 0zm1.206 0.856l-1.411 0 0 0.045c0,0.025 0.02,0.046 0.045,0.046l1.32 0c0.025,0 0.046,-0.021 0.046,-0.046l0 -0.045zm-0.584 -0.496l-0.159 0.104c-0.015,0.009 -0.035,-0.002 -0.035,-0.019l0 -0.208c0,-0.019 0.022,-0.029 0.037,-0.018l0.157 0.103c0.014,0.009 0.014,0.029 0,0.038zm-0.122 0.186c0.113,0 0.205,-0.092 0.205,-0.205 0,-0.113 -0.092,-0.205 -0.205,-0.205 -0.113,0 -0.204,0.092 -0.204,0.205 0,0.113 0.091,0.205 0.204,0.205zm-0.026 -0.143l0.095 -0.062 -0.095 -0.062 0 0.124zm0.55 0.325l-1.047 0c-0.013,0 -0.023,-0.011 -0.023,-0.023l0 -0.728c0,-0.013 0.01,-0.023 0.023,-0.023l1.047 0c0.012,0 0.022,0.01 0.022,0.023l0 0.728c0,0.012 -0.01,0.023 -0.022,0.023zm-0.017 -0.865l-1.014 0c-0.071,0 -0.13,0.058 -0.13,0.13l0 0.803c0,0.012 0.01,0.023 0.023,0.023l1.229 0c0.012,0 0.022,-0.011 0.022,-0.023l0 -0.803c0,-0.072 -0.058,-0.13 -0.13,-0.13zm-0.757 0.478c0,-0.138 0.112,-0.25 0.25,-0.25 0.138,0 0.251,0.112 0.251,0.25 0,0.138 -0.113,0.25 -0.251,0.25 -0.138,0 -0.25,-0.112 -0.25,-0.25z"/></g></svg>